<svg version="1.2" xmlns="http://www.w3.org/2000/svg" viewBox="0 0 17 18" width="17" height="18"><defs><clipPath clipPathUnits="userSpaceOnUse" id="cp1"><path d="m-163-302h1440v2176h-1440z"/></clipPath></defs><style>.a{fill:#00136f}</style><g clip-path="url(#cp1)"><path class="a" d="m12.8 6.4c0.4-0.1 0.8 0.4 0.8 0.8q0 0.6-0.1 1.2c-0.4 2.9-2.6 5.3-5.3 5.9-1.5 0.3-2.9 0.1-4.3-0.6-1.2-0.6-2.2-1.6-2.9-2.8-0.7-1.2-1.1-2.8-1-4.2 0.1-1.5 0.7-2.9 1.6-4.1 1.8-2.3 4.9-3.2 7.5-2.2 1.3 0.5 2.4 1.4 3.3 2.7 0.8 1.2 1.2 2.6 1.2 4.1 0 0.5-0.4 0.8-0.8 0.8-0.4 0.1-0.8-0.4-0.8-0.8q0-0.2 0-0.5 0-0.1 0-0.2c0-0.2 0-0.1 0 0 0 0 0-0.1 0-0.1q-0.1-0.5-0.2-0.9-0.1-0.3-0.2-0.5c0-0.1 0.1 0.1 0 0q0 0 0-0.1-0.1-0.1-0.1-0.2-0.2-0.4-0.5-0.7c0-0.1 0-0.2-0.1-0.3 0.1 0.1 0.1 0.1 0 0.1q0-0.1 0-0.1-0.2-0.2-0.3-0.3-0.2-0.2-0.4-0.4 0 0-0.1-0.1 0-0.1-0.1-0.1c-0.1-0.1 0 0 0 0 0-0.1-0.2-0.2-0.3-0.2q-0.2-0.2-0.4-0.3-0.2-0.1-0.4-0.2c0 0-0.1 0-0.1 0 0 0 0.2 0 0 0q-0.1-0.1-0.2-0.1-0.4-0.2-0.8-0.3-0.1 0-0.3 0c-0.2 0 0.2 0 0 0q-0.2 0-0.5 0-0.4-0.1-0.9 0c-0.1 0 0 0 0 0q0 0-0.1 0-0.1 0-0.2 0-0.2 0.1-0.4 0.2-0.2 0-0.4 0.1-0.1 0-0.2 0.1c-0.2 0 0 0 0 0 0 0-0.1 0-0.1 0q-0.4 0.2-0.8 0.5c-0.1 0-0.3 0.1-0.4 0.2 0.1 0 0.2-0.1 0.1 0q-0.1 0-0.1 0.1-0.1 0.1-0.2 0.1-0.3 0.3-0.6 0.7 0 0 0 0.1c-0.1 0.1 0-0.1 0 0q-0.1 0-0.1 0.1-0.2 0.2-0.3 0.4-0.1 0.2-0.2 0.4 0 0.1-0.1 0.2 0 0.1 0 0.1c-0.1 0.1 0-0.1 0 0q-0.2 0.4-0.3 0.9 0 0.2-0.1 0.5c0 0 0 0.1 0 0.1 0-0.1 0-0.2 0-0.1q0 0.2 0 0.3 0 0.5 0 1 0 0.1 0 0.2c0 0.2 0 0 0 0q0 0 0 0.1 0.1 0.2 0.1 0.4 0.1 0.5 0.3 1c0 0.1-0.1-0.2 0 0q0 0 0 0.1 0.1 0.1 0.1 0.2 0.1 0.2 0.2 0.3 0.1 0.3 0.3 0.5c0 0 0.1 0.1 0.1 0.1 0 0-0.1-0.1 0 0q0 0 0 0.1 0.3 0.3 0.6 0.6 0.1 0.1 0.2 0.2 0.1 0 0.1 0.1c0.1 0-0.1-0.1 0-0.1q0.1 0.2 0.3 0.3 0.4 0.3 0.8 0.5c0 0 0.1 0 0.1 0-0.1 0-0.1-0.1 0 0q0.1 0 0.2 0.1 0.2 0 0.4 0.1 0.2 0.1 0.4 0.1 0.1 0.1 0.2 0.1c0 0 0.1 0 0.1 0 0 0-0.1 0 0 0q0.5 0 0.9 0 0.3 0 0.5 0c0.1 0 0 0 0 0 0 0 0.1 0 0.1 0q0.1 0 0.2-0.1 0.4-0.1 0.9-0.2 0.1-0.1 0.2-0.1c0.1-0.1-0.2 0-0.1 0q0.1 0 0.1 0 0.2-0.1 0.4-0.3 0.4-0.2 0.7-0.5c0.1 0-0.1 0.2 0 0.1q0.1-0.1 0.1-0.1 0.1-0.1 0.2-0.2 0.1-0.1 0.3-0.3 0.1-0.1 0.3-0.3 0-0.1 0-0.1c0.1-0.1 0 0 0 0 0 0 0.1-0.1 0.1-0.1q0.3-0.4 0.5-0.8 0-0.2 0.1-0.3c0 0 0-0.1 0-0.1 0 0 0 0.2 0 0.1q0.1-0.2 0.2-0.5 0.1-0.4 0.2-0.9c0 0 0-0.2 0 0 0 0.1 0-0.1 0-0.1q0-0.1 0-0.2 0-0.3 0-0.5c0-0.5 0.4-0.8 0.8-0.8zm-2.4 5.7c-0.3-0.3-0.3-0.8 0-1.1 0.3-0.3 0.8-0.3 1.1 0q0.3 0.4 0.6 0.7 1.5 1.5 2.9 3.1 0.9 0.9 1.8 1.9c0.3 0.3 0.3 0.8 0 1.1-0.3 0.3-0.8 0.3-1.1 0q-0.3-0.4-0.6-0.7-1.5-1.5-2.9-3.1-0.9-0.9-1.8-1.9z"/></g></svg>