<svg version="1.2" xmlns="http://www.w3.org/2000/svg" viewBox="0 0 57 53" width="57" height="53"><defs><clipPath clipPathUnits="userSpaceOnUse" id="cp1"><path d="m-263-949h1440v2176h-1440z"/></clipPath></defs><style>.a{fill:#0b2776}.b{fill:#294289}</style><g clip-path="url(#cp1)"><path class="a" d="m57 6c0 2.8-2.3 5-5 5-2.8 0-5-2.3-5-5 0-2.8 2.2-5 5-5 2.8 0 5 2.2 5 5z"/><path class="b" d="m35.9 23.4l8.4 11.3c0.5 0.6 0.7 1.3 0.7 2.1l-0.1 14.9c0 0.7-0.5 1.3-1.3 1.3h-0.9c-0.7 0-1.2-0.5-1.3-1.1l-1.9-13.4c0-0.5-0.3-0.9-0.6-1.2l-9.6-7.6-4.6 2.7q-0.9 0.6-2 0.6l-19.1 0.3c-0.5 0-1.1-0.2-1.4-0.6l-2-2.1c-0.4-0.5-0.1-1.3 0.5-1.4l19.7-2.8 15-16-12.1-2.3c-0.3 0-0.7-0.2-0.9-0.4l-2-1.6c-0.4-0.3-0.2-1 0.4-1h7l12.7-0.1c0.5 0 0.9 0.3 1.2 0.7l2.9 4.7c0.3 0.5 0.3 1.1 0 1.6l-7 9.1z"/></g></svg>